# xmcd
# 
# Track frame offsets:
#     150
#     29641
#     64215
#     82642
#     102899
#     131175
#     163842
#     192620
#     205265
#     233065
#     250915
#     278148
# 
# Disc length: 4178
# 
# Revision: 2
# Processed by: cddbd v1.5.2PL0 Copyright (c) Steve Scherf et al.
# Submitted via: fre:ac v1.0.31
# 
DISCID=ac10500c
DTITLE=Gelesen von Josefine Preuß - Ich schreib dir morgen wieder CD5
DYEAR=2010
DGENRE=Hörbuch
TTITLE0=40 Ich schreib dir morgen wieder
TTITLE1=41 Ich schreib dir morgen wieder
TTITLE2=42 Ich schreib dir morgen wieder
TTITLE3=43 Ich schreib dir morgen wieder
TTITLE4=44 Ich schreib dir morgen wieder
TTITLE5=45 Ich schreib dir morgen wieder
TTITLE6=46 Ich schreib dir morgen wieder
TTITLE7=47 Ich schreib dir morgen wieder
TTITLE8=48 Ich schreib dir morgen wieder
TTITLE9=49 Ich schreib dir morgen wieder
TTITLE10=50 Ich schreib dir morgen wieder
TTITLE11=51 Ich schreib dir morgen wieder
EXTD=
EXTT0=
EXTT1=
EXTT2=
EXTT3=
EXTT4=
EXTT5=
EXTT6=
EXTT7=
EXTT8=
EXTT9=
EXTT10=
EXTT11=
PLAYORDER=
